<svg width="33" height="33" viewBox="0 0 33 33" fill="none" xmlns="http://www.w3.org/2000/svg">
<path d="M32.9375 0.0625024V8.32057C32.9375 11.3682 32.5441 14.3175 31.7575 17.1685C30.9708 20.0686 29.8601 22.7968 28.4256 25.3528C26.9447 27.9089 25.2094 30.1454 23.2195 32.0625L18.2911 28.2284C20.4198 25.1808 22.0395 22.1086 23.1501 19.0118C24.2144 15.915 24.7466 12.425 24.7466 8.54176V0.0625016L32.9375 0.0625024ZM15.5839 0.0625008V8.32056C15.5839 11.3682 15.1906 14.3175 14.4039 17.1685C13.6172 20.0686 12.5066 22.7968 11.072 25.3528C9.59115 27.9089 7.85579 30.1454 5.86592 32.0625L0.9375 28.2284C3.06621 25.1808 4.68587 22.1086 5.7965 19.0118C6.86086 15.915 7.39303 12.425 7.39303 8.54176L7.39303 0.0625L15.5839 0.0625008Z" fill="black"/>
</svg>
